<svg xmlns="http://www.w3.org/2000/svg" width="1611.839" height="504.233" viewBox="0 0 1611.839 504.233">
  <path id="Hello" d="M469.518-494.338H391.954v208.56H148.232v-208.56H70.669V0h77.563V-215.454H391.954V0h77.563ZM899.736-144.785l3.792-35.162q0-71.358-47.4-118.758t-118.586-47.4q-71.186,0-122.033,50.847T564.662-173.053q0,74.116,52.226,127.031T741.162,6.894A177.421,177.421,0,0,0,793.388-.862q25.337-7.756,41.195-16.892a206.958,206.958,0,0,0,29.991-21.028q14.134-11.893,18.443-16.892t6.377-7.756l-45.849-45.849-10.687,13.1q-10.687,12.755-36.369,26.2a117.531,117.531,0,0,1-55.329,13.444q-41.022,0-70.841-26.2t-35.335-62.051ZM737.369-285.779q38.954,0,64.809,22.58t32.06,58.431H638.088q8.963-35.851,34.989-58.431T737.369-285.779Zm320.942-208.559H987.986V0h70.324Zm183.395,0h-70.324V0h70.324Zm367.134,324.9q0,47.4-31.37,80.149t-74.461,32.749q-43.091,0-74.633-32.749t-31.542-80.149q0-47.4,31.542-80.149t74.633-32.749q43.091,0,74.461,32.749T1608.839-169.433Zm-282.331,0q0,71.186,52.571,123.757T1503.008,6.895q71.358,0,123.929-52.571t52.571-123.757q0-71.186-52.571-123.929t-123.929-52.743q-71.358,0-123.929,52.743T1326.508-169.433Z" transform="translate(-69.169 495.838)" fill="none" stroke="#29a19c" stroke-width="3" opacity="0.28"/>
</svg>
