<svg xmlns="http://www.w3.org/2000/svg" width="110.112" height="110.112" viewBox="0 0 110.112 110.112">
  <g id="Steering" transform="translate(-7 -7)">
    <g id="Group_6" data-name="Group 6" transform="translate(7 7)">
      <path id="Path_84" data-name="Path 84" d="M62.056,959.362a55.056,55.056,0,1,0,55.056,55.056A55.1,55.1,0,0,0,62.056,959.362Zm0,14.124a40.946,40.946,0,0,1,37.611,24.687l-29.449,3.4a14.893,14.893,0,0,0-8.162-2.8,14.892,14.892,0,0,0-8.162,2.8l-29.449-3.4a40.947,40.947,0,0,1,37.611-24.688Zm-40.572,35.37,25.567,9.963a18.021,18.021,0,0,0,3.121,5.241,19.059,19.059,0,0,0,4.321,3.8l2.2,27.168a40.806,40.806,0,0,1-35.21-46.176Zm81.144,0a40.8,40.8,0,0,1-35.21,46.173l2.2-27.168a18.375,18.375,0,0,0,4.321-3.8,18.85,18.85,0,0,0,3.121-5.241Zm-40.572.44a5.121,5.121,0,1,1-5.121,5.121A5.121,5.121,0,0,1,62.056,1009.3Z" transform="translate(-7 -959.362)" fill="#5a5a5a"/>
    </g>
  </g>
</svg>
